<?xml version="1.0" encoding="utf-8"?>
<!-- Generator: Adobe Illustrator 23.0.3, SVG Export Plug-In . SVG Version: 6.00 Build 0)  -->
<svg version="1.1" id="Layer_1" xmlns="http://www.w3.org/2000/svg" xmlns:xlink="http://www.w3.org/1999/xlink" x="0px" y="0px"
	 viewBox="0 0 165.1 232.9" style="enable-background:new 0 0 165.1 232.9;" xml:space="preserve">
<style type="text/css">
	.st0{fill:#FFFFFF;}
	.st1{fill:#A7A9AC;}
</style>
<title>FINOS_Icon_Wordmark_Black</title>
<polygon class="st0" points="130,0 130,37.7 35.3,68 35.3,30.4 129.9,0 "/>
<polygon class="st0" points="35.3,91.7 35.3,158.3 72.1,158.3 72.1,117.4 130,98.9 130,61.4 "/>
<path class="st0" d="M0,195.4h28.1v7.3h-20v7.9h17.6v7.4H8.1v14.3H0V195.4z"/>
<path class="st0" d="M35.4,195.4h8.1v36.9h-8.1V195.4z"/>
<path class="st0" d="M52.7,195.4h7.5l17.3,22.7v-22.7h8v36.9h-6.9l-17.9-23.5v23.5h-8L52.7,195.4z"/>
<path class="st0" d="M92.5,213.9v-0.1c0-10.5,8.3-19.1,19.7-19.1s19.6,8.5,19.6,19v0.1c0,10.5-8.3,19.1-19.7,19.1
	S92.5,224.4,92.5,213.9z M123.2,213.9v-0.1c0-6.3-4.6-11.6-11.2-11.6s-11.1,5.2-11.1,11.5v0.1c0,6.3,4.6,11.6,11.2,11.6
	S123.2,220.2,123.2,213.9z"/>
<path class="st0" d="M135.9,226.9l4.8-5.8c3.3,2.7,6.8,4.5,11,4.5c3.3,0,5.3-1.3,5.3-3.5V222c0-2.1-1.3-3.1-7.4-4.7
	c-7.4-1.9-12.2-4-12.2-11.3V206c0-6.7,5.4-11.1,12.9-11.1c5-0.1,9.8,1.6,13.7,4.7l-4.2,6.1c-3.3-2.3-6.5-3.6-9.6-3.6
	s-4.8,1.4-4.8,3.2v0.1c0,2.4,1.6,3.2,8,4.9c7.5,2,11.7,4.6,11.7,11.1v0.1c0,7.3-5.6,11.5-13.5,11.5
	C145.8,232.8,140.2,230.7,135.9,226.9z"/>
<path class="st1" d="M130,61.2c0,0,0-0.1,0-0.1c0,0,0,0-0.1,0L93.5,49.4L35.3,68v0.2c0,0,0,0.1,0.1,0.1h0.1L71.9,80L130,61.4
	L130,61.2z"/>
</svg>
