<?xml version="1.0" encoding="utf-8"?>
<!-- Generator: Adobe Illustrator 24.2.3, SVG Export Plug-In . SVG Version: 6.00 Build 0)  -->
<svg version="1.1" id="Layer_1" xmlns="http://www.w3.org/2000/svg" xmlns:xlink="http://www.w3.org/1999/xlink" x="0px" y="0px"
	 viewBox="0 0 720 209.1" style="enable-background:new 0 0 720 209.1;" xml:space="preserve">
<style type="text/css">
	.st0{fill:#FFFFFF;}
</style>
<g>
	<path class="st0" d="M243.7,137.6h25.1c-5.4,11.6-17.6,17-31.4,17c-21.5,0-36.9-17.4-36.9-39.7c0-22.3,15.5-39.7,36.9-39.7
		c13.1,0,23.2,2.1,33.3,14.2c0.9,1.1,2.8,2.8,5.4,2.8c7.5,0,30.3,0,33.7,0c3.2,0,4.5-3,3.2-5.8c-17-34.8-38.4-49.2-75.6-49.2
		c-43.8,0-80.5,34.8-80.5,77.7c0,6.5,0.9,12.9,2.5,18.9l55.7,36.8c2.7,1.8,2.7,4.6,0,6.4l-12.1,8c10.5,4.9,22.1,7.7,34.4,7.7
		c17.6,0,31.6-6.2,42.3-15.5v7.5c0,3,2.4,5.4,5.4,5.4h24.3c3,0,5.4-2.4,5.4-5.4c0-71.9,0-71.9,0-71.9c0-3-2.4-5.4-5.4-5.4h-65.7
		c-2.8,0-5.2,2.4-5.2,5.4v19.5C238.5,135.2,240.9,137.6,243.7,137.6L243.7,137.6z"/>
	<path class="st0" d="M424.5,153.1h-59.9v-19.8h48.1c2.8,0,5.4-2.4,5.4-5.4v-26.2c0-3-2.6-5.4-5.4-5.4h-48.1V76.6h59.3
		c2.8,0,5.4-2.4,5.4-5.4V45c0-3-2.6-5.4-5.4-5.4h-98.1c-3,0-5.4,2.4-5.4,5.4v139.6c0,3,2.4,5.4,5.4,5.4h98.8c3,0,5.4-2.4,5.4-5.4
		v-26.2C429.9,155.4,427.5,153.1,424.5,153.1L424.5,153.1z"/>
	<path class="st0" d="M562.8,190c3,0,5.4-2.4,5.4-5.4V45c0-3-2.4-5.4-5.4-5.4h-33.5c-3,0-5.4,2.4-5.4,5.4v71.1
		c0,0-41.9-62.7-46.4-68.7c-4.5-6-6.9-7.7-12-7.7h-23.2h-1.5c-2.8,0-5.4,2.4-5.4,5.4v139.6c0,3,2.4,5.4,5.4,5.4h33.7
		c2.8,0,5.4-2.4,5.4-5.4v-72.4l48.1,72.4c2.4,3.4,4.7,5.4,11,5.4C540.7,190,562.8,190,562.8,190L562.8,190z"/>
	<path class="st0" d="M633.8,39.7c-0.6,0-54.1,0-54.1,0c-3,0-5.3,2.4-5.3,5.4v139.6c0,3,2.3,5.4,5.3,5.4c0,0,35.1,0,52.4,0
		c52.8,0,87.9-27.7,87.9-75.4C720,80.3,702.2,39.7,633.8,39.7L633.8,39.7z M637.1,153.1c-2.5,0-11.4,0-19.2,0V76.6c7,0,15,0,19.2,0
		c29,0,38.7,19.8,38.7,38.4C675.8,135.7,664.2,153.1,637.1,153.1L637.1,153.1z"/>
	<path class="st0" d="M141.9,86.5V68.1c0-1.6-1.2-2.9-2.8-2.9H66.5c-1.6,0-2.8,1.3-2.8,2.9v18.4c0,1.6,1.2,2.9,2.8,2.9h72.6
		C140.7,89.4,141.9,88.1,141.9,86.5L141.9,86.5z"/>
	<path class="st0" d="M118.4,116.9V98.5c0-1.6-0.9-2.9-2-2.9H65.7c-1.1,0-2,1.3-2,2.9v18.4c0,1.6,0.9,2.9,2,2.9h50.8
		C117.6,119.8,118.4,118.6,118.4,116.9L118.4,116.9z"/>
	<path class="st0" d="M141.9,147.3V129c0-1.6-1.2-2.9-2.8-2.9H66.5c-1.6,0-2.8,1.3-2.8,2.9v18.4c0,1.6,1.2,2.9,2.8,2.9h72.6
		C140.7,150.3,141.9,149,141.9,147.3L141.9,147.3z"/>
	<path class="st0" d="M205,170.7l-52.3-31.6c-2.7-1.7-5-0.4-5,2.8v16l-91.9,0V59.4h11.4c3.2,0,4.5-2.2,2.8-5L38.4,2.1
		c-1.7-2.7-4.3-2.7-6,0L0.7,54.4c-1.7,2.7-0.4,5,2.8,5h12.1v126.1c0,3,2.4,5.4,5.4,5.4h126.7v14.8c0,3.2,2.2,4.4,5,2.8l52.3-31.6
		C207.7,175.1,207.7,172.4,205,170.7L205,170.7z"/>
</g>
</svg>
