<svg version="1.1" id="Layer_1" xmlns="http://www.w3.org/2000/svg" x="0" y="0" viewBox="0 0 720 209.1" xml:space="preserve"><style>.st0{fill:#645b65}.st1{fill:#6e6c6d}</style><path class="st0" d="M243.7 137.6h25.1c-5.4 11.6-17.6 17-31.4 17-21.5 0-36.9-17.4-36.9-39.7 0-22.3 15.5-39.7 36.9-39.7 13.1 0 23.2 2.1 33.3 14.2.9 1.1 2.8 2.8 5.4 2.8h33.7c3.2 0 4.5-3 3.2-5.8-17-34.8-38.4-49.2-75.6-49.2-43.8 0-80.5 34.8-80.5 77.7 0 6.5.9 12.9 2.5 18.9l55.7 36.8c2.7 1.8 2.7 4.6 0 6.4l-12.1 8c10.5 4.9 22.1 7.7 34.4 7.7 17.6 0 31.6-6.2 42.3-15.5v7.5c0 3 2.4 5.4 5.4 5.4h24.3c3 0 5.4-2.4 5.4-5.4v-71.9c0-3-2.4-5.4-5.4-5.4h-65.7c-2.8 0-5.2 2.4-5.2 5.4v19.5c0 2.9 2.4 5.3 5.2 5.3z"/><path class="st1" d="M424.5 153.1h-59.9v-19.8h48.1c2.8 0 5.4-2.4 5.4-5.4v-26.2c0-3-2.6-5.4-5.4-5.4h-48.1V76.6h59.3c2.8 0 5.4-2.4 5.4-5.4V45c0-3-2.6-5.4-5.4-5.4h-98.1c-3 0-5.4 2.4-5.4 5.4v139.6c0 3 2.4 5.4 5.4 5.4h98.8c3 0 5.4-2.4 5.4-5.4v-26.2c-.1-3-2.5-5.3-5.5-5.3z"/><path class="st0" d="M562.8 190c3 0 5.4-2.4 5.4-5.4V45c0-3-2.4-5.4-5.4-5.4h-33.5c-3 0-5.4 2.4-5.4 5.4v71.1S482 53.4 477.5 47.4s-6.9-7.7-12-7.7h-24.7c-2.8 0-5.4 2.4-5.4 5.4v139.6c0 3 2.4 5.4 5.4 5.4h33.7c2.8 0 5.4-2.4 5.4-5.4v-72.4l48.1 72.4c2.4 3.4 4.7 5.4 11 5.4 1.7-.1 23.8-.1 23.8-.1z"/><path d="M633.8 39.7h-54.1c-3 0-5.3 2.4-5.3 5.4v139.6c0 3 2.3 5.4 5.3 5.4h52.4c52.8 0 87.9-27.7 87.9-75.4 0-34.4-17.8-75-86.2-75zm3.3 113.4h-19.2V76.6h19.2c29 0 38.7 19.8 38.7 38.4 0 20.7-11.6 38.1-38.7 38.1z" fill="#545157"/><path class="st1" d="M141.9 86.5V68.1c0-1.6-1.2-2.9-2.8-2.9H66.5c-1.6 0-2.8 1.3-2.8 2.9v18.4c0 1.6 1.2 2.9 2.8 2.9h72.6c1.6 0 2.8-1.3 2.8-2.9zm-23.5 30.4V98.5c0-1.6-.9-2.9-2-2.9H65.7c-1.1 0-2 1.3-2 2.9v18.4c0 1.6.9 2.9 2 2.9h50.8c1.1 0 1.9-1.2 1.9-2.9zm23.5 30.4V129c0-1.7-1.2-2.9-2.8-2.9H66.5c-1.6 0-2.8 1.3-2.8 2.9v18.4c0 1.6 1.2 2.9 2.8 2.9h72.6c1.6 0 2.8-1.3 2.8-3z"/><path d="M205 170.7l-52.3-31.6c-2.7-1.7-5-.4-5 2.8v16H55.8V59.4h11.4c3.2 0 4.5-2.2 2.8-5L38.4 2.1c-1.7-2.7-4.3-2.7-6 0L.7 54.4c-1.7 2.7-.4 5 2.8 5h12.1v126.1c0 3 2.4 5.4 5.4 5.4h126.7v14.8c0 3.2 2.2 4.4 5 2.8l52.3-31.7c2.7-1.7 2.7-4.4 0-6.1z" fill="#508590"/></svg>