<svg viewBox="0 0 220 90" xmlns="http://www.w3.org/2000/svg" fill-rule="evenodd" clip-rule="evenodd" stroke-linejoin="round" stroke-miterlimit="2"><g fill="#e6e6e6" fill-rule="nonzero"><path d="M31.3 25.6c1 0 1.4.6 1.4 1.5v16.4h-2.8V27.1c0-.9.4-1.5 1.4-1.5zm-1.4 58.8V55.7h2.8v28.8h22.7V13.4c0-4.8-2.3-7.7-7.6-7.7H14.6c-5.2 0-7.5 2.9-7.5 7.7v71.1l22.8-.1zm57 0V64.6h-5.1c-1 0-1.4-.6-1.4-1.5V5.7H57.7v71.1c0 4.8 2.3 7.7 7.5 7.7l21.7-.1zm67.8-78.7c5.2 0 7.5 2.9 7.5 7.7v41.2c0 4.8-2.3 7.7-7.5 7.7h-33.25c-5.2 0-7.5-2.9-7.5-7.7V13.4c0-4.8 2.3-7.7 7.5-7.7h33.25zm-16.575 17.6h-.025c-1 0-1.4.5-1.4 1.5v18.5c0 .9.4 1.5 1.4 1.5h.05c1 0 1.4-.6 1.4-1.5V24.8c0-1-.4-1.5-1.4-1.5h-.025z"/><path d="M111.7 84.5H96.4c-5.2 0-7.5-2.9-7.5-7.7V5.7l22.8.1v58.891l50.5-.091v19.9h-50.5zm52.7-78.8v34.4c0 4.8 2.3 7.7 7.5 7.7H190v15.4c0 .9-.4 1.5-1.4 1.5-1 0-1.4-.6-1.4-1.5V50.1h-22.7v26.7c0 5.3 2.9 7.6 7.7 7.6h33c5.3 0 7.6-2.9 7.6-7.7v-71h-22.7V28h-1.4c-1 0-1.4-.9-1.4-1.7V5.7h-22.9z"/></g></svg>