<?xml version="1.0" encoding="UTF-8" standalone="no"?>
<!DOCTYPE svg PUBLIC "-//W3C//DTD SVG 1.1//EN" "http://www.w3.org/Graphics/SVG/1.1/DTD/svg11.dtd">
<svg width="100%" height="100%" viewBox="0 0 220 90" version="1.1" 
      xmlns="http://www.w3.org/2000/svg" 
      xmlns:xlink="http://www.w3.org/1999/xlink" xml:space="preserve" 
      xmlns:serif="http://www.serif.com/" style="fill-rule:evenodd;clip-rule:evenodd;stroke-linejoin:round;stroke-miterlimit:2;">
      <g>
            <path fill="#e6e6e6" d="M31.3,25.6c1,0 1.4,0.6 1.4,1.5l0,16.4l-2.8,0l0,-16.4c0,-0.9 0.4,-1.5 1.4,-1.5Zm-1.4,58.8l0,-28.7l2.8,0l0,28.8l22.7,0l0,-71.1c0,-4.8 -2.3,-7.7 -7.6,-7.7l-33.2,0c-5.2,0 -7.5,2.9 -7.5,7.7l0,71.1l22.8,-0.1Z" style="fill-rule:nonzero;" />
            <path fill="#e6e6e6" d="M86.9,84.4l0,-19.8l-5.1,0c-1,0 -1.4,-0.6 -1.4,-1.5l0,-57.4l-22.7,0l0,71.1c0,4.8 2.3,7.7 7.5,7.7l21.7,-0.1Z" style="fill-rule:nonzero;" />
            <path fill="#e6e6e6" d="M154.7,5.7c5.2,0 7.5,2.9 7.5,7.7l0,41.2c0,4.8 -2.3,7.7 -7.5,7.7l-33.25,0c-5.2,0 -7.5,-2.9 -7.5,-7.7l0,-41.2c0,-4.8 2.3,-7.7 7.5,-7.7l33.25,0Zm-16.575,17.6l-0.025,0c-1,0 -1.4,0.5 -1.4,1.5l0,18.5c0,0.9 0.4,1.5 1.4,1.5l0.025,0l0.025,0c1,0 1.4,-0.6 1.4,-1.5l0,-18.5c0,-1 -0.4,-1.5 -1.4,-1.5l-0.025,0Z" style="fill-rule:nonzero;" />
            <path fill="#e6e6e6" d="M111.7,84.5l-15.3,0c-5.2,0 -7.5,-2.9 -7.5,-7.7l0,-71.1l22.8,0.1l0,58.891l50.5,-0.091l0,19.9l-50.5,0Z" style="fill-rule:nonzero;" />
            <path fill="#e6e6e6" d="M164.4,5.7l0,34.4c0,4.8 2.3,7.7 7.5,7.7l18.1,0l0,15.4c0,0.9 -0.4,1.5 -1.4,1.5c-1,0 -1.4,-0.6 -1.4,-1.5l0,-13.1l-22.7,0l0,26.7c0,5.3 2.9,7.6 7.7,7.6l33,0c5.3,0 7.6,-2.9 7.6,-7.7l0,-71l-22.7,0l0,22.3l-1.4,0c-1,0 -1.4,-0.9 -1.4,-1.7l0,-20.6l-22.9,0Z" style="fill-rule:nonzero;" />
      </g>
</svg>
