<svg xmlns="http://www.w3.org/2000/svg" viewBox="0 0 165.1 232.9"><path d="M130 0v37.7L35.3 68V30.4L129.9 0zM35.3 91.7v66.6h36.8v-40.9L130 98.9V61.4zM0 195.4h28.1v7.3h-20v7.9h17.6v7.4H8.1v14.3H0v-36.9zm35.4 0h8.1v36.9h-8.1v-36.9zm17.3 0h7.5l17.3 22.7v-22.7h8v36.9h-6.9l-17.9-23.5v23.5h-8v-36.9zm39.8 18.5v-.1c0-10.5 8.3-19.1 19.7-19.1s19.6 8.5 19.6 19v.1c0 10.5-8.3 19.1-19.7 19.1s-19.6-8.5-19.6-19zm30.7 0v-.1c0-6.3-4.6-11.6-11.2-11.6s-11.1 5.2-11.1 11.5v.1c0 6.3 4.6 11.6 11.2 11.6s11.1-5.2 11.1-11.5zm12.7 13l4.8-5.8c3.3 2.7 6.8 4.5 11 4.5 3.3 0 5.3-1.3 5.3-3.5v-.1c0-2.1-1.3-3.1-7.4-4.7-7.4-1.9-12.2-4-12.2-11.3 0-6.7 5.4-11.1 12.9-11.1 5-.1 9.8 1.6 13.7 4.7l-4.2 6.1c-3.3-2.3-6.5-3.6-9.6-3.6s-4.8 1.4-4.8 3.2v.1c0 2.4 1.6 3.2 8 4.9 7.5 2 11.7 4.6 11.7 11.1v.1c0 7.3-5.6 11.5-13.5 11.5-5.8-.2-11.4-2.3-15.7-6.1z" fill="#fff"/><path d="M130 61.2v-.1h-.1L93.5 49.4 35.3 68v.2s0 .1.1.1h.1L71.9 80 130 61.4v-.2z" fill="#a7a9ac"/></svg>